<svg width="22" height="22" xmlns="http://www.w3.org/2000/svg">
 <!-- Generator: Sketch 55 (78076) - https://sketchapp.com -->

 <title>Comment</title>
 <desc>Created with Sketch.</desc>
 <g>
  <title>background</title>
  <rect fill="none" id="canvas_background" height="402" width="582" y="-1" x="-1"/>
 </g>
 <g>
  <title>Layer 1</title>
  <g stroke="null" id="svg_26">
   <g stroke="null" transform="matrix(0.04393690317906564,0,0,0.04393690317906564,2.2260580889717474,2.2411593257980655) " id="svg_16">
    <path stroke="null" id="svg_17" fill="#ade194" d="m406.606616,94.103909c23.286,0 42.163,18.877 42.163,42.163l0,174.169c0,23.286 -18.877,42.163 -42.163,42.163l-20.298,0l-24.906,31.128c-4.514,5.642 -12.948,6.062 -18,0.896l-31.317,-32.024l-164.83,0c-23.286,0 -42.163,-18.877 -42.163,-42.163l0,-216.332l301.514,0z"/>
    <g stroke="null" id="svg_18">
     <path stroke="null" id="svg_19" fill="#97da7b" d="m105.092616,94.103909l0,216.332c0,23.286 18.877,42.163 42.163,42.163l51.134,0c-7.38,-7.594 -11.932,-17.951 -11.932,-29.376c0,-16.165 13.104,-29.269 29.269,-29.269l75.407,0c37.093,0 67.163,-30.07 67.163,-67.163l0,-132.687l-253.204,0z"/>
     <path stroke="null" id="svg_20" fill="#dff6fd" d="m291.132616,10.457909l-298.351,0c-23.286,0 -42.163,18.877 -42.163,42.163l0,174.169c0,23.286 18.877,42.163 42.163,42.163l20.297,0l24.906,31.128c4.514,5.642 12.948,6.062 18,0.896l31.317,-32.024l203.83,0c23.286,0 42.163,-18.877 42.163,-42.163l0,-174.169c0.001,-23.286 -18.876,-42.163 -42.162,-42.163z"/>
     <path stroke="null" id="svg_21" fill="#c8effe" d="m42.165616,226.790909l0,-174.17c0,-23.286 18.877,-42.163 42.163,-42.163l-91.547,0c-23.286,0 -42.163,18.877 -42.163,42.163l0,174.169c0,23.286 18.877,42.163 42.163,42.163l20.297,0l24.906,31.128c4.514,5.642 12.948,6.062 18,0.896l31.317,-32.024l-2.974,0c-23.285,0 -42.162,-18.877 -42.162,-42.162z"/>
     <g stroke="null" id="svg_22" fill="#99e6fc">
      <circle stroke="null" id="svg_23" r="17.994999" cy="143.472909" cx="141.957616"/>
      <circle stroke="null" id="svg_24" r="17.994999" cy="143.472909" cx="32.414616"/>
      <circle stroke="null" id="svg_25" r="17.994999" cy="143.472909" cx="251.499616"/>
     </g>
    </g>
   </g>
  </g>
 </g>
</svg>