<svg width="23" height="22" xmlns="http://www.w3.org/2000/svg">
 <!-- Generator: Sketch 55 (78076) - https://sketchapp.com -->

 <title>Like</title>
 <desc>Created with Sketch.</desc>
 <g>
  <title>background</title>
  <rect fill="none" id="canvas_background" height="402" width="582" y="-1" x="-1"/>
 </g>
 <g>
  <title>Layer 1</title>
  <g stroke="null" id="svg_14">
   <path stroke="null" id="svg_5" fill="#ffb74d" d="m3.966637,11.057421c0.110155,-0.357554 -0.091194,-0.735875 -0.448748,-0.84603c-0.180583,-0.055078 -0.372,-0.083068 -0.568836,-0.083068c-1.244215,0 -2.257285,1.012166 -2.257285,2.257285s1.012166,2.257285 2.257285,2.257285c0.196835,0 0.388253,-0.02799 0.568836,-0.083971c0.357554,-0.109253 0.558001,-0.488476 0.448748,-0.84603c-0.090291,-0.291641 -0.358457,-0.467709 -0.647389,-0.467709l0,-1.719148c0.288932,0 0.558001,-0.176068 0.647389,-0.468612z"/>
   <path stroke="null" id="svg_6" fill="#ffb74d" d="m19.580726,10.190623c-0.364777,0.084874 -0.591409,0.448748 -0.506535,0.812622c0.072233,0.311505 0.352136,0.511049 0.66003,0.511049l0,1.740818c-0.306991,-0.000903 -0.586894,0.199544 -0.66003,0.511049c-0.084874,0.363874 0.141757,0.728651 0.506535,0.812622c0.178777,0.04334 0.354845,0.064107 0.52369,0.064107c1.244215,0 2.257285,-1.012166 2.257285,-2.257285c0,-1.41306 -1.288458,-2.538994 -2.780975,-2.194983z"/>
   <path stroke="null" id="svg_7" fill="#ffd54f" d="m20.555872,12.385607c0,4.975055 -4.054083,9.029138 -9.029138,9.029138s-9.029138,-4.054083 -9.029138,-9.029138c0,-3.611655 2.130877,-6.726708 5.200784,-8.17137c0.433399,-0.216699 0.893885,-0.388253 1.372429,-0.514661c0.776506,-0.225728 1.607187,-0.343107 2.455926,-0.343107s1.67942,0.117379 2.455926,0.343107c0.018058,0.10835 0.027087,0.216699 0.027087,0.334078c0,1.372429 -1.110584,2.483013 -2.483013,2.483013c-0.397282,0 -0.776506,-0.090291 -1.110584,-0.261845c-0.334078,-0.162524 -0.740389,-0.036117 -0.911943,0.297962s-0.036117,0.740389 0.297962,0.911943c0.52369,0.261845 1.119613,0.406311 1.724565,0.406311c2.049614,0 3.738063,-1.625245 3.828355,-3.656801c3.069907,1.444662 5.200784,4.559715 5.200784,8.17137z"/>
   <path stroke="null" id="svg_8" fill="#6d4c41" d="m15.364118,4.033654c0,0.063204 0,0.126408 -0.009029,0.180583c-0.090291,2.031556 -1.77874,3.656801 -3.828355,3.656801c-0.604952,0 -1.200875,-0.144466 -1.724565,-0.406311c-0.334078,-0.171554 -0.469515,-0.577865 -0.297962,-0.911943s0.577865,-0.460486 0.911943,-0.297962c0.334078,0.171554 0.713302,0.261845 1.110584,0.261845c1.372429,0 2.483013,-1.110584 2.483013,-2.483013c0,-0.117379 -0.009029,-0.225728 -0.027087,-0.334078c-0.162524,-1.218934 -1.200875,-2.148935 -2.455926,-2.148935s-2.293401,0.930001 -2.455926,2.148935c-0.478544,0.126408 -0.93903,0.297962 -1.372429,0.514661c-0.009029,-0.054175 -0.009029,-0.117379 -0.009029,-0.180583c0,-2.112818 1.724565,-3.837384 3.837384,-3.837384s3.837384,1.724565 3.837384,3.837384z"/>
   <path stroke="null" id="svg_9" fill="#6d4c41" d="m11.535763,17.12139c-1.097943,0 -2.195886,-0.418049 -3.031082,-1.254147c-0.264554,-0.264554 -0.264554,-0.693438 0,-0.957992s0.693438,-0.264554 0.957992,0c1.108778,1.107875 3.039208,1.107875 4.147986,0c0.264554,-0.264554 0.693438,-0.264554 0.957992,0s0.264554,0.693438 0,0.957992c-0.837001,0.836098 -1.934944,1.254147 -3.032888,1.254147z"/>
   <path stroke="null" id="svg_10" fill="#e53935" d="m18.759074,21.866202c-0.134534,0 -0.268165,-0.039728 -0.383738,-0.120088c-0.53904,-0.371098 -3.227917,-2.314168 -3.227917,-4.110064c0,-1.152118 0.990496,-2.090245 2.208527,-2.090245c0.522787,0 1.015778,0.174262 1.403128,0.474933c0.38735,-0.30067 0.881244,-0.474933 1.403128,-0.474933c1.218031,0 2.208527,0.938127 2.208527,2.090245c0,1.794993 -2.688877,3.738966 -3.227917,4.110064c-0.115573,0.080359 -0.249204,0.120088 -0.383738,0.120088z"/>
   <path stroke="null" id="svg_11" fill="#6d4c41" d="m9.05275,12.611335c-0.373806,0 -0.677185,-0.303379 -0.677185,-0.677185c0,-0.248301 -0.202253,-0.451457 -0.451457,-0.451457s-0.451457,0.203156 -0.451457,0.451457c0,0.373806 -0.303379,0.677185 -0.677185,0.677185s-0.677185,-0.303379 -0.677185,-0.677185c0,-0.995914 0.809914,-1.805828 1.805828,-1.805828s1.805828,0.809914 1.805828,1.805828c0,0.373806 -0.303379,0.677185 -0.677185,0.677185z"/>
   <path stroke="null" id="svg_12" fill="#6d4c41" d="m16.276061,12.611335c-0.373806,0 -0.677185,-0.303379 -0.677185,-0.677185c0,-0.248301 -0.202253,-0.451457 -0.451457,-0.451457s-0.451457,0.203156 -0.451457,0.451457c0,0.373806 -0.303379,0.677185 -0.677185,0.677185s-0.677185,-0.303379 -0.677185,-0.677185c0,-0.995914 0.809914,-1.805828 1.805828,-1.805828s1.805828,0.809914 1.805828,1.805828c0,0.373806 -0.303379,0.677185 -0.677185,0.677185z"/>
   <path stroke="null" id="svg_13" fill="#e53935" d="m5.215367,9.225408c-0.134534,0 -0.268165,-0.039728 -0.383738,-0.120088c-0.53904,-0.371098 -3.227917,-2.314168 -3.227917,-4.110064c0,-1.152118 0.990496,-2.090245 2.208527,-2.090245c0.521884,0 1.015778,0.174262 1.403128,0.474933c0.38735,-0.30067 0.881244,-0.474933 1.403128,-0.474933c1.218031,0 2.208527,0.938127 2.208527,2.090245c0,1.794993 -2.688877,3.738966 -3.227917,4.110064c-0.115573,0.080359 -0.249204,0.120088 -0.383738,0.120088z"/>
  </g>
 </g>
</svg>