<svg width="25" height="22" xmlns="http://www.w3.org/2000/svg">
 <!-- Generator: Sketch 55 (78076) - https://sketchapp.com -->

 <title>Send</title>
 <desc>Created with Sketch.</desc>
 <g>
  <title>background</title>
  <rect fill="none" id="canvas_background" height="402" width="582" y="-1" x="-1"/>
 </g>
 <g>
  <title>Layer 1</title>
  <g stroke="null" id="svg_24">
   <g stroke="null" transform="matrix(0.047687619653675836,0,0,0.04784004657272343,-2893.863191403539,-2553.5651254213767) " id="svg_5">
    <path stroke="null" id="svg_6" fill="#F3D55B" d="m61197.880983,53396.71355c-2.313,-1.661 -5.324,-1.995 -7.945,-0.883l-447.117,180.436l-52.966,21.98l160.044,64.794l0.177,0l0,0.088l42.814,149.451c0.862,3.009 3.254,5.336 6.285,6.117c3.031,0.78 6.249,-0.103 8.457,-2.321l89.159,-91.189l120.32,47.316c4.959,2.027 10.574,1.661 15.228,-0.993c4.653,-2.654 7.827,-7.301 8.607,-12.601l60.734,-353.015c0.781,-3.553 -0.734,-7.217 -3.797,-9.18zm-259.267,304.816l0.177,-0.618l0.265,0.088l-0.442,0.53z"/>
    <path stroke="null" id="svg_7" fill="#F29C1F" d="m60996.787983,53725.18755l-89.159,91.189c1.039,-1.131 1.796,-2.492 2.207,-3.972l28.778,-110.874l0.441,-0.53l38.312,16.066l17.126,7.239l2.295,0.882z"/>
    <path stroke="null" id="svg_8" fill="#F0C419" d="m61198.533983,53397.18955l-259.478,303.81l-0.265,-0.088l-0.177,0.618l-28.778,110.874c-0.411,1.48 -1.167,2.841 -2.207,3.972c-2.208,2.218 -5.426,3.101 -8.457,2.321c-3.031,-0.78 -5.422,-3.108 -6.285,-6.117l-42.814,-149.451l0,-0.088l-0.088,0l0,-0.088l348.549,-265.763z"/>
   </g>
   <g stroke="null" transform="matrix(0.047687619653675836,0,0,0.04784004657272343,-2893.863191403539,-2553.5651254213767) " id="svg_9"/>
   <g stroke="null" transform="matrix(0.047687619653675836,0,0,0.04784004657272343,-2893.863191403539,-2553.5651254213767) " id="svg_10"/>
   <g stroke="null" transform="matrix(0.047687619653675836,0,0,0.04784004657272343,-2893.863191403539,-2553.5651254213767) " id="svg_11"/>
   <g stroke="null" transform="matrix(0.047687619653675836,0,0,0.04784004657272343,-2893.863191403539,-2553.5651254213767) " id="svg_12"/>
   <g stroke="null" transform="matrix(0.047687619653675836,0,0,0.04784004657272343,-2893.863191403539,-2553.5651254213767) " id="svg_13"/>
   <g stroke="null" transform="matrix(0.047687619653675836,0,0,0.04784004657272343,-2893.863191403539,-2553.5651254213767) " id="svg_14"/>
   <g stroke="null" transform="matrix(0.047687619653675836,0,0,0.04784004657272343,-2893.863191403539,-2553.5651254213767) " id="svg_15"/>
   <g stroke="null" transform="matrix(0.047687619653675836,0,0,0.04784004657272343,-2893.863191403539,-2553.5651254213767) " id="svg_16"/>
   <g stroke="null" transform="matrix(0.047687619653675836,0,0,0.04784004657272343,-2893.863191403539,-2553.5651254213767) " id="svg_17"/>
   <g stroke="null" transform="matrix(0.047687619653675836,0,0,0.04784004657272343,-2893.863191403539,-2553.5651254213767) " id="svg_18"/>
   <g stroke="null" transform="matrix(0.047687619653675836,0,0,0.04784004657272343,-2893.863191403539,-2553.5651254213767) " id="svg_19"/>
   <g stroke="null" transform="matrix(0.047687619653675836,0,0,0.04784004657272343,-2893.863191403539,-2553.5651254213767) " id="svg_20"/>
   <g stroke="null" transform="matrix(0.047687619653675836,0,0,0.04784004657272343,-2893.863191403539,-2553.5651254213767) " id="svg_21"/>
   <g stroke="null" transform="matrix(0.047687619653675836,0,0,0.04784004657272343,-2893.863191403539,-2553.5651254213767) " id="svg_22"/>
   <g stroke="null" transform="matrix(0.047687619653675836,0,0,0.04784004657272343,-2893.863191403539,-2553.5651254213767) " id="svg_23"/>
  </g>
 </g>
</svg>